<?xml version="1.0" encoding="UTF-8"?>
<svg xmlns="http://www.w3.org/2000/svg" viewBox="0 0 64 64" aria-label="Gremlin">
  <defs>
    <linearGradient id="g" x1="0" y1="0" x2="1" y2="1">
      <stop offset="0%" stop-color="#67ff9a"/>
      <stop offset="100%" stop-color="#b07bff"/>
    </linearGradient>
  </defs>
  <rect width="64" height="64" rx="14" fill="#05060a"/>
  <path d="M32 6 L56 19 L56 45 L32 58 L8 45 L8 19 Z" fill="none" stroke="url(#g)" stroke-width="2.5"/>
  <path d="M32 18 C43 18 49 26 49 33 C49 41 42 47 32 50 C22 47 15 41 15 33 C15 26 21 18 32 18 Z" fill="#0a0d18" stroke="#67ff9a" stroke-width="1.6"/>
  <path d="M22 33 Q26 29 30 33 Q26 37 22 33 Z" fill="#67ff9a"/>
  <path d="M34 33 Q38 29 42 33 Q38 37 34 33 Z" fill="#b07bff"/>
  <circle cx="32" cy="10" r="2.2" fill="#67ff9a"/>
  <line x1="32" y1="12" x2="32" y2="18" stroke="#67ff9a" stroke-width="1.6"/>
</svg>
