<?xml version="1.0" encoding="UTF-8"?>
<svg xmlns="http://www.w3.org/2000/svg" viewBox="0 0 1200 630" role="img" aria-label="Gremlin — Broken People Transmission">
  <defs>
    <linearGradient id="bg" x1="0" y1="0" x2="1" y2="1">
      <stop offset="0%" stop-color="#05060a"/>
      <stop offset="60%" stop-color="#0a0d18"/>
      <stop offset="100%" stop-color="#15123b"/>
    </linearGradient>
    <linearGradient id="lg" x1="0" y1="0" x2="1" y2="1">
      <stop offset="0%" stop-color="#67ff9a"/>
      <stop offset="100%" stop-color="#b07bff"/>
    </linearGradient>
    <radialGradient id="glow" cx="50%" cy="50%" r="50%">
      <stop offset="0%" stop-color="#67ff9a" stop-opacity="0.45"/>
      <stop offset="100%" stop-color="#67ff9a" stop-opacity="0"/>
    </radialGradient>
    <radialGradient id="glowP" cx="50%" cy="50%" r="50%">
      <stop offset="0%" stop-color="#b07bff" stop-opacity="0.4"/>
      <stop offset="100%" stop-color="#b07bff" stop-opacity="0"/>
    </radialGradient>
    <pattern id="grid" width="40" height="40" patternUnits="userSpaceOnUse">
      <path d="M40 0H0V40" fill="none" stroke="#67ff9a" stroke-opacity="0.06"/>
    </pattern>
  </defs>

  <rect width="1200" height="630" fill="url(#bg)"/>
  <rect width="1200" height="630" fill="url(#grid)"/>

  <!-- Glows -->
  <circle cx="200" cy="180" r="360" fill="url(#glow)"/>
  <circle cx="1050" cy="500" r="400" fill="url(#glowP)"/>

  <!-- Orbit rings -->
  <g transform="translate(960 320)" fill="none">
    <circle r="180" stroke="#67ff9a" stroke-opacity="0.35" stroke-dasharray="2 8"/>
    <circle r="220" stroke="#b07bff" stroke-opacity="0.3" stroke-dasharray="1 10"/>
    <circle r="120" stroke="#67ff9a" stroke-opacity="0.2"/>
  </g>

  <!-- Alien glyph -->
  <g transform="translate(960 320)">
    <path d="M0 -90 L78 -45 L78 45 L0 90 L-78 45 L-78 -45 Z" fill="none" stroke="url(#lg)" stroke-width="3"/>
    <path d="M0 -50 C32 -50 52 -30 52 -5 C52 25 32 50 0 60 C-32 50 -52 25 -52 -5 C-52 -30 -32 -50 0 -50 Z" fill="#0a0d18" stroke="#67ff9a" stroke-width="2"/>
    <path d="M-30 -5 Q-18 -18 -6 -5 Q-18 8 -30 -5 Z" fill="#67ff9a"/>
    <path d="M6 -5 Q18 -18 30 -5 Q18 8 6 -5 Z" fill="#b07bff"/>
    <circle cx="0" cy="-100" r="4" fill="#67ff9a"/>
    <line x1="0" y1="-96" x2="0" y2="-90" stroke="#67ff9a" stroke-width="2"/>
  </g>

  <!-- Type -->
  <g font-family="'Helvetica Neue', Arial, sans-serif">
    <text x="80" y="160" font-size="26" letter-spacing="8" fill="#67ff9a">// LIVE TRANSMISSION</text>
    <text x="80" y="305" font-size="118" font-weight="800" letter-spacing="-5" fill="url(#lg)">BROKEN</text>
    <text x="80" y="410" font-size="118" font-weight="800" letter-spacing="-5" fill="url(#lg)">PEOPLE</text>
    <text x="80" y="465" font-size="28" letter-spacing="5" fill="#b07bff">fall apart · assemble stronger</text>
    <text x="80" y="530" font-size="34" font-weight="700" letter-spacing="2" fill="#e8ffea">GREMLIN</text>
    <text x="80" y="570" font-size="22" letter-spacing="4" fill="#8a93a8">Official merch drop alerts · gremlinraps.com</text>
  </g>

  <!-- Bottom row dots -->
  <g fill="#67ff9a">
    <circle cx="80" cy="585" r="4"/>
    <circle cx="100" cy="585" r="4" fill="#b07bff"/>
    <circle cx="120" cy="585" r="4"/>
    <circle cx="140" cy="585" r="4" fill="#b07bff"/>
  </g>
</svg>
